<?xml version="1.0" encoding="UTF-8" standalone="no"?>
<!DOCTYPE svg PUBLIC "-//W3C//DTD SVG 1.1//EN" "http://www.w3.org/Graphics/SVG/1.1/DTD/svg11.dtd">
<svg width="100%" height="100%" viewBox="0 0 3000 3000" version="1.1" xmlns="http://www.w3.org/2000/svg" xmlns:xlink="http://www.w3.org/1999/xlink" xml:space="preserve" xmlns:serif="http://www.serif.com/" style="fill-rule:evenodd;clip-rule:evenodd;stroke-linecap:round;stroke-linejoin:round;stroke-miterlimit:1.5;">
    <g id="Logo" transform="matrix(1,0,0,1,162.248001,-241.97143)">
        <g transform="matrix(-5.126899,0,-0,-3.300122,11617.380599,7959.17638)">
            <path d="M2263.033,2183.937C2261.495,2212.035 2248.886,2235.694 2231.404,2243.284C2175.97,2267.383 2055.893,2319.512 2017.992,2335.967C2010.332,2339.292 2002.232,2339.292 1994.572,2335.967C1956.438,2319.411 1835.12,2266.743 1780.142,2242.876C1763.118,2235.485 1750.664,2212.83 1748.63,2185.552C1721.802,1823.421 1816.104,1590.618 1985.911,1438.408C1998.677,1426.995 2014.294,1426.395 2027.408,1436.815C2193.546,1569.215 2283.759,1802.713 2263.033,2183.937Z" style="fill:none;"/>
            <clipPath id="_clip1">
                <path d="M2263.033,2183.937C2261.495,2212.035 2248.886,2235.694 2231.404,2243.284C2175.97,2267.383 2055.893,2319.512 2017.992,2335.967C2010.332,2339.292 2002.232,2339.292 1994.572,2335.967C1956.438,2319.411 1835.12,2266.743 1780.142,2242.876C1763.118,2235.485 1750.664,2212.83 1748.63,2185.552C1721.802,1823.421 1816.104,1590.618 1985.911,1438.408C1998.677,1426.995 2014.294,1426.395 2027.408,1436.815C2193.546,1569.215 2283.759,1802.713 2263.033,2183.937Z"/>
            </clipPath>
            <g clip-path="url(#_clip1)">
                <g transform="matrix(-0.611992,-0,0,-0.870197,3086.681082,3323.553028)">
                    <path d="M1124.441,1240.738C1124.441,1240.737 1124.44,1240.737 1124.44,1240.737C1124.44,1240.738 1124.44,1240.738 1124.44,1240.738C1124.439,1240.738 1124.439,1240.737 1124.439,1240.737C1124.439,1240.737 1124.439,1240.736 1124.439,1240.736C1125.66,1239.787 1621.917,853.864 1741.648,760.753C1757.072,748.758 1777.758,748.758 1793.182,760.753C1913.06,853.978 2410.393,1240.738 2410.393,1240.738L2410.39,1240.738C2410.389,1240.738 2410.388,1240.739 2410.388,1240.74C2410.388,1242.187 2410.388,2055.985 2410.388,2265.159C2410.388,2278.035 2405.707,2290.383 2397.374,2299.488C2389.04,2308.593 2377.738,2313.708 2365.953,2313.708L1168.876,2313.708C1157.091,2313.708 1145.789,2308.593 1137.456,2299.488C1129.123,2290.383 1124.441,2278.035 1124.441,2265.159L1124.441,1240.738Z" style="fill:none;"/>
                    <clipPath id="_clip2">
                        <path d="M1124.441,1240.738C1124.441,1240.737 1124.44,1240.737 1124.44,1240.737C1124.44,1240.738 1124.44,1240.738 1124.44,1240.738C1124.439,1240.738 1124.439,1240.737 1124.439,1240.737C1124.439,1240.737 1124.439,1240.736 1124.439,1240.736C1125.66,1239.787 1621.917,853.864 1741.648,760.753C1757.072,748.758 1777.758,748.758 1793.182,760.753C1913.06,853.978 2410.393,1240.738 2410.393,1240.738L2410.39,1240.738C2410.389,1240.738 2410.388,1240.739 2410.388,1240.74C2410.388,1242.187 2410.388,2055.985 2410.388,2265.159C2410.388,2278.035 2405.707,2290.383 2397.374,2299.488C2389.04,2308.593 2377.738,2313.708 2365.953,2313.708L1168.876,2313.708C1157.091,2313.708 1145.789,2308.593 1137.456,2299.488C1129.123,2290.383 1124.441,2278.035 1124.441,2265.159L1124.441,1240.738Z"/>
                    </clipPath>
                    <g clip-path="url(#_clip2)">
                        <g transform="matrix(0.888705,0,0,0.97098,478.934171,76.513938)">
                            <g>
                                <g>
                                    <g transform="matrix(1.031041,0,-0,1.251043,-162.5828,-352.793995)">
                                        <rect x="391" y="282" width="2195" height="2398" style="fill:url(#_Linear3);"/>
                                    </g>
                                </g>
                            </g>
                        </g>
                    </g>
                </g>
                <g transform="matrix(-0.368394,-0,0,-0.572318,2496.763079,2837.889218)">
                    <path d="M1502.989,1009.326C1502.331,1004.9 1503.953,1000.44 1507.302,997.472C1510.652,994.504 1515.274,993.429 1519.589,994.615C1599.458,1016.56 1898.782,1098.802 1951.728,1113.349C1956.651,1114.702 1960.357,1118.765 1961.253,1123.791C1992.014,1298.47 1967.66,1470.908 1912.818,1623.544C1910.496,1630.051 1903.559,1633.677 1896.892,1631.869C1890.224,1630.061 1886.069,1623.428 1887.352,1616.64C1931.467,1383.826 1837.557,1184.134 1513.696,1039.62C1509.562,1037.779 1506.654,1033.953 1505.988,1029.476C1505.188,1024.105 1504.055,1016.489 1502.989,1009.326Z" style="fill:white;fill-opacity:0.3;"/>
                </g>
            </g>
        </g>
        <g transform="matrix(1.043102,-0,0,0.954717,-505.843686,60.183565)">
            <path d="M1124.441,1240.738C1124.441,1240.737 1124.44,1240.737 1124.44,1240.737C1124.44,1240.738 1124.44,1240.738 1124.44,1240.738C1124.439,1240.738 1124.439,1240.737 1124.439,1240.737C1124.439,1240.737 1124.439,1240.736 1124.439,1240.736C1125.66,1239.787 1621.917,853.864 1741.648,760.753C1757.072,748.758 1777.758,748.758 1793.182,760.753C1913.06,853.978 2410.393,1240.738 2410.393,1240.738L2410.39,1240.738C2410.389,1240.738 2410.388,1240.739 2410.388,1240.74C2410.388,1242.187 2410.388,2055.985 2410.388,2265.159C2410.388,2278.035 2405.707,2290.383 2397.374,2299.488C2389.04,2308.593 2377.738,2313.708 2365.953,2313.708C2285.847,2313.708 1248.983,2313.708 1168.876,2313.708C1157.091,2313.708 1145.789,2308.593 1137.456,2299.488C1129.123,2290.383 1124.441,2278.035 1124.441,2265.159L1124.441,1240.738" style="fill:none;stroke:white;stroke-width:123.72px;"/>
        </g>
        <g transform="matrix(3.340637,-0,0,3.340637,-3673.203841,-3453.583302)">
            <g transform="matrix(1.068475,0,0,0.911097,-106.925484,458.359303)">
                <path d="M1533.473,1069.624L1595.477,1134.232L1595.477,1356.805C1595.477,1362.195 1593.651,1367.365 1590.401,1371.176C1587.151,1374.987 1582.743,1377.128 1578.147,1377.128L1429.74,1377.128C1425.144,1377.128 1420.736,1374.987 1417.486,1371.176C1414.236,1367.365 1412.411,1362.195 1412.411,1356.805L1412.411,1089.947C1412.411,1084.557 1414.236,1079.388 1417.486,1075.577C1420.736,1071.766 1425.144,1069.624 1429.74,1069.624L1533.473,1069.624ZM1555.819,1174.547L1492.72,1239.981L1458.73,1223.376L1492.72,1275.983L1555.819,1174.547Z" style="fill:white;"/>
            </g>
            <g transform="matrix(1.073933,0,0,1.101742,-118.129609,120.804364)">
                <path d="M1536.112,1190.92L1597.801,1244.347L1543.08,1244.347C1541.232,1244.347 1539.46,1243.632 1538.153,1242.358C1536.846,1241.084 1536.112,1239.356 1536.112,1237.555L1536.112,1190.92Z" style="fill:rgb(232,232,232);"/>
            </g>
        </g>
    </g>
    <defs>
        <linearGradient id="_Linear3" x1="0" y1="0" x2="1" y2="0" gradientUnits="userSpaceOnUse" gradientTransform="matrix(2231.38178,-1105.882322,1778.754912,2437.746473,354.61822,2586.882322)"><stop offset="0" style="stop-color:rgb(1,31,181);stop-opacity:1"/><stop offset="1" style="stop-color:rgb(10,232,199);stop-opacity:1"/></linearGradient>
    </defs>
</svg>
